<svg xmlns="http://www.w3.org/2000/svg" width="1080" height="1080" viewBox="0 0 1080 1080"><defs><linearGradient id="g-localizacao" x1="0" y1="0" x2="1" y2="1"><stop offset="0" stop-color="#F1DDC0"/><stop offset=".3" stop-color="#E6C28A"/><stop offset=".6" stop-color="#D69F56"/><stop offset="1" stop-color="#C3791C"/></linearGradient><radialGradient id="f-localizacao" cx=".5" cy=".42" r=".7"><stop offset="0" stop-color="#1E1F21"/><stop offset="1" stop-color="#121314"/></radialGradient></defs><rect width="1080" height="1080" fill="url(#f-localizacao)"/><circle cx="540" cy="540" r="470" fill="none" stroke="url(#g-localizacao)" stroke-width="6"/><circle cx="540" cy="540" r="448" fill="none" stroke="url(#g-localizacao)" stroke-width="1.5" opacity=".7"/><path d="M540 13l9 9-9 9-9-9z" fill="url(#g-localizacao)" stroke="none"/><path d="M540 1049l9 9-9 9-9-9z" fill="url(#g-localizacao)" stroke="none"/><path d="M70 531l9 9-9 9-9-9z" fill="url(#g-localizacao)" stroke="none"/><path d="M1010 531l9 9-9 9-9-9z" fill="url(#g-localizacao)" stroke="none"/><g transform="translate(250 250) scale(5.8)" fill="none" stroke="url(#g-localizacao)" stroke-width="2.2" stroke-linecap="round" stroke-linejoin="round" color="#D69F56">
  <path d="M50 88S24 62 24 40a26 26 0 0 1 52 0c0 22-26 48-26 48z"/>
  <circle cx="50" cy="40" r="10"/>
  <circle cx="50" cy="40" r="4" stroke-width="1"/>
  <path d="M30 90h40" stroke-width="1" opacity=".55"/>
  <path d="M34 40a16 16 0 0 1 16-16" stroke-width="1" opacity=".55"/></g></svg>